<svg width="441" height="403" viewBox="0 0 441 403" fill="none" xmlns="http://www.w3.org/2000/svg">
<path d="M113.698 93.4001L138.382 85.8087L142.608 99.5486L117.924 107.14L113.698 93.4001Z" fill="#656769" stroke="#45413C" stroke-width="5" stroke-linecap="round" stroke-linejoin="round"/>
<path d="M420.5 200.025C420.504 170.176 413.826 140.705 400.957 113.772C388.088 86.8397 369.354 63.1293 346.128 44.3798C322.902 25.6304 295.774 12.3174 266.733 5.4172C237.693 -1.48296 207.476 -1.79531 178.299 4.50307C149.122 10.8014 121.724 23.5508 98.1159 41.8162C74.5076 60.0815 55.2871 83.3996 41.8639 110.06C28.4408 136.721 21.1554 166.048 20.5422 195.891C19.929 225.734 26.0034 255.336 38.32 282.525H402.68C414.444 256.614 420.52 228.483 420.5 200.025Z" fill="#C7F0FF"/>
<path d="M38.3198 282.525C54.1833 317.545 79.8039 347.25 112.114 368.085C144.424 388.919 182.055 400 220.5 400C258.945 400 296.575 388.919 328.886 368.085C361.196 347.25 386.816 317.545 402.68 282.525H38.3198Z" fill="#B7EB91"/>
<path d="M25.5 282.525H415.5" stroke="#45413C" stroke-width="5" stroke-linecap="round" stroke-linejoin="round"/>
<path d="M3 282.525H15.5" stroke="#45413C" stroke-width="5" stroke-linecap="round" stroke-linejoin="round"/>
<path d="M425.5 282.525H438" stroke="#45413C" stroke-width="5" stroke-linecap="round" stroke-linejoin="round"/>
<path d="M320.545 232.38C315.82 234.59 311.712 237.928 308.582 242.1C305.453 246.273 303.398 251.151 302.6 256.305L317.55 267.525C318.349 262.371 320.405 257.492 323.535 253.32C326.665 249.147 330.775 245.809 335.5 243.6L320.545 232.38Z" fill="#BF8DF2" stroke="#45413C" stroke-width="5" stroke-linecap="round" stroke-linejoin="round"/>
<path d="M185 173.025C174.814 172.983 164.879 169.867 156.493 164.085C148.107 158.303 141.662 150.125 138 140.62L124.71 99.9554C124.3 98.6986 124.141 97.3734 124.243 96.0554C124.346 94.7374 124.706 93.4524 125.305 92.2738C125.904 91.0952 126.729 90.0461 127.733 89.1863C128.737 88.3265 129.901 87.6729 131.157 87.2629C133.696 86.4348 136.459 86.6488 138.839 87.8579C140.018 88.4566 141.067 89.2816 141.927 90.2858C142.786 91.29 143.44 92.4536 143.85 93.7104L156.97 133.92C159.197 139.538 163.064 144.354 168.067 147.743C173.07 151.132 178.977 152.936 185.02 152.92H197.52C198.86 152.891 200.193 153.129 201.44 153.621C202.687 154.113 203.823 154.85 204.782 155.787C205.74 156.724 206.502 157.844 207.021 159.079C207.541 160.315 207.809 161.642 207.809 162.983C207.809 164.324 207.541 165.651 207.021 166.886C206.502 168.122 205.74 169.241 204.782 170.179C203.823 171.116 202.687 171.853 201.44 172.345C200.193 172.837 198.86 173.075 197.52 173.045L185 173.025Z" fill="#FFDA8F"/>
<path d="M125.4 95.3955C127.681 95.3247 129.93 95.9511 131.846 97.191C133.762 98.4309 135.255 100.226 136.125 102.335L150.83 142.525C153.692 148.377 158.178 153.28 163.753 156.649C169.327 160.019 175.754 161.712 182.265 161.525H196.265C198.345 161.479 200.399 162 202.205 163.034C204.011 164.067 205.501 165.573 206.515 167.39C207.271 165.856 207.623 164.155 207.538 162.446C207.453 160.738 206.934 159.08 206.03 157.628C205.125 156.176 203.865 154.979 202.369 154.15C200.873 153.321 199.19 152.888 197.48 152.89H185C178.957 152.906 173.05 151.102 168.047 147.713C163.044 144.324 159.177 139.508 156.95 133.89L143.83 93.6805C143.123 91.518 141.704 89.659 139.804 88.4066C137.905 87.1541 135.637 86.5822 133.371 86.7841C131.104 86.9859 128.973 87.9497 127.325 89.5181C125.677 91.0865 124.609 93.167 124.295 95.4205C124.655 95.4155 125.025 95.3955 125.4 95.3955Z" fill="#FFE9BD"/>
<path d="M185 173.025C174.814 172.983 164.879 169.867 156.493 164.085C148.107 158.303 141.662 150.125 138 140.62L124.71 99.9554C124.3 98.6986 124.141 97.3734 124.243 96.0554C124.346 94.7374 124.706 93.4524 125.305 92.2738C125.904 91.0952 126.729 90.0461 127.733 89.1863C128.737 88.3265 129.901 87.6729 131.157 87.2629C133.696 86.4348 136.459 86.6488 138.839 87.8579C140.018 88.4566 141.067 89.2816 141.927 90.2858C142.786 91.29 143.44 92.4536 143.85 93.7104L156.97 133.92C159.197 139.538 163.064 144.354 168.067 147.743C173.07 151.132 178.977 152.936 185.02 152.92H197.52C198.86 152.891 200.193 153.129 201.44 153.621C202.687 154.113 203.823 154.85 204.782 155.787C205.74 156.724 206.502 157.844 207.021 159.079C207.541 160.315 207.809 161.642 207.809 162.983C207.809 164.324 207.541 165.651 207.021 166.886C206.502 168.122 205.74 169.241 204.782 170.179C203.823 171.116 202.687 171.853 201.44 172.345C200.193 172.837 198.86 173.075 197.52 173.045L185 173.025Z" stroke="#45413C" stroke-width="5" stroke-linecap="round" stroke-linejoin="round"/>
<path d="M256 173.025C266.185 172.983 276.121 169.867 284.507 164.085C292.893 158.303 299.338 150.125 303 140.62L316.29 99.9554C316.7 98.6986 316.858 97.3734 316.756 96.0554C316.654 94.7374 316.294 93.4524 315.695 92.2738C315.096 91.0952 314.271 90.0461 313.267 89.1863C312.263 88.3265 311.099 87.6729 309.842 87.2629C308.586 86.8528 307.26 86.6943 305.942 86.7964C304.624 86.8985 303.339 87.2592 302.161 87.8579C300.982 88.4566 299.933 89.2816 299.073 90.2858C298.214 91.29 297.56 92.4536 297.15 93.7104L284.03 133.92C281.803 139.538 277.936 144.354 272.933 147.743C267.93 151.132 262.023 152.936 255.98 152.92H243.5C240.87 152.979 238.368 154.065 236.528 155.946C234.689 157.826 233.659 160.352 233.659 162.983C233.659 165.613 234.689 168.139 236.528 170.02C238.368 171.901 240.87 172.987 243.5 173.045L256 173.025Z" fill="#FFDA8F"/>
<path d="M244.715 161.525H258.715C265.225 161.712 271.652 160.02 277.226 156.65C282.8 153.281 287.285 148.377 290.145 142.525L304.855 102.32C305.722 100.21 307.214 98.4141 309.13 97.1738C311.045 95.9336 313.294 95.3079 315.575 95.3805C315.95 95.3805 316.325 95.3805 316.695 95.4305C316.381 93.177 315.313 91.0965 313.665 89.5281C312.016 87.9597 309.885 86.996 307.619 86.7941C305.353 86.5922 303.085 87.1642 301.186 88.4166C299.286 89.669 297.867 91.528 297.16 93.6905L284.04 133.9C281.814 139.517 277.948 144.334 272.946 147.723C267.944 151.112 262.037 152.916 255.995 152.9H243.5C241.79 152.899 240.108 153.333 238.612 154.162C237.117 154.992 235.858 156.189 234.954 157.64C234.05 159.092 233.531 160.75 233.446 162.458C233.362 164.165 233.714 165.867 234.47 167.4C235.481 165.581 236.969 164.073 238.775 163.037C240.58 162.002 242.634 161.479 244.715 161.525Z" fill="#FFE9BD"/>
<path d="M256 173.025C266.185 172.983 276.121 169.867 284.507 164.085C292.893 158.303 299.338 150.125 303 140.62L316.29 99.9554C316.7 98.6986 316.858 97.3734 316.756 96.0554C316.654 94.7374 316.294 93.4524 315.695 92.2738C315.096 91.0952 314.271 90.0461 313.267 89.1863C312.263 88.3265 311.099 87.6729 309.842 87.2629C308.586 86.8528 307.26 86.6943 305.942 86.7964C304.624 86.8985 303.339 87.2592 302.161 87.8579C300.982 88.4566 299.933 89.2816 299.073 90.2858C298.214 91.29 297.56 92.4536 297.15 93.7104L284.03 133.92C281.803 139.538 277.936 144.354 272.933 147.743C267.93 151.132 262.023 152.936 255.98 152.92H243.5C240.87 152.979 238.368 154.065 236.528 155.946C234.689 157.826 233.659 160.352 233.659 162.983C233.659 165.613 234.689 168.139 236.528 170.02C238.368 171.901 240.87 172.987 243.5 173.045L256 173.025Z" stroke="#45413C" stroke-width="5" stroke-linecap="round" stroke-linejoin="round"/>
<path d="M254.825 187.605C253.112 183.084 252.198 178.3 252.125 173.465V152.9H188.87V173.465C188.797 178.3 187.884 183.084 186.17 187.605C184.653 190.833 184.101 194.431 184.581 197.965C185.061 201.499 186.552 204.819 188.875 207.525V221.9H252.125V207.525C254.447 204.819 255.938 201.498 256.417 197.964C256.896 194.43 256.343 190.833 254.825 187.605Z" fill="#FF6196"/>
<path d="M188.87 152.9H252.125V161.525H188.87V152.9Z" fill="#FF87AF"/>
<path d="M254.825 187.605C253.112 183.084 252.198 178.3 252.125 173.465V152.9H188.87V173.465C188.797 178.3 187.884 183.084 186.17 187.605C184.653 190.833 184.101 194.431 184.581 197.965C185.061 201.499 186.552 204.819 188.875 207.525V221.9H252.125V207.525C254.447 204.819 255.938 201.498 256.417 197.964C256.896 194.43 256.343 190.833 254.825 187.605V187.605Z" stroke="#45413C" stroke-width="5" stroke-linecap="round" stroke-linejoin="round"/>
<path d="M345.5 400.025L264.045 282.525H176.955L95.5 400.025" fill="#ADC4D9"/>
<path d="M345.5 400.025L264.045 282.525H176.955L95.5 400.025" stroke="#45413C" stroke-width="5" stroke-linecap="round" stroke-linejoin="round"/>
<path d="M243.5 316.775C243.5 319.825 242.288 322.75 240.132 324.907C237.975 327.064 235.05 328.275 232 328.275C228.95 328.275 226.025 327.064 223.868 324.907C221.712 322.75 220.5 319.825 220.5 316.775V302.4H243.5V316.775Z" fill="#FF6196" stroke="#45413C" stroke-width="5" stroke-linecap="round" stroke-linejoin="round"/>
<path d="M220.5 308.15H237.53C240.42 308.152 243.204 307.067 245.329 305.109C247.455 303.151 248.765 300.465 249 297.585L252.135 259.275H188.875L197.575 365.65H214.75C215.505 365.65 216.253 365.502 216.95 365.213C217.648 364.924 218.282 364.5 218.816 363.966C219.35 363.432 219.773 362.798 220.062 362.101C220.351 361.403 220.5 360.655 220.5 359.9V308.15Z" fill="#FFDA8F"/>
<path d="M220.5 334.025V308.15H237.53C240.42 308.152 243.204 307.067 245.329 305.109C247.455 303.151 248.765 300.465 249 297.585L252.135 259.275H188.875L195 334.025H220.5Z" fill="#FFBE3D"/>
<path d="M220.5 308.15H237.53C240.42 308.152 243.204 307.067 245.329 305.109C247.455 303.151 248.765 300.465 249 297.585L252.135 259.275H188.875L197.575 365.65H214.75C215.505 365.65 216.253 365.502 216.95 365.213C217.648 364.924 218.282 364.5 218.816 363.966C219.35 363.432 219.773 362.798 220.062 362.101C220.351 361.403 220.5 360.655 220.5 359.9V308.15Z" stroke="#45413C" stroke-width="5" stroke-linecap="round" stroke-linejoin="round"/>
<path d="M220.5 325.4V308.15H237.53C240.42 308.152 243.204 307.067 245.329 305.109C247.455 303.151 248.765 300.465 249 297.585L252.135 259.275H188.875L194.28 325.4H220.5Z" fill="#656769"/>
<path d="M251.185 270.775L252.125 259.275H188.875L189.815 270.775H251.185Z" fill="#525252"/>
<path d="M220.5 325.4V308.15H237.53C240.42 308.152 243.204 307.067 245.329 305.109C247.455 303.151 248.765 300.465 249 297.585L252.135 259.275H188.875L194.28 325.4H220.5Z" stroke="#45413C" stroke-width="5" stroke-linecap="round" stroke-linejoin="round"/>
<path opacity="0.15" d="M168.75 371.4C168.75 373.688 173.899 375.882 183.065 377.499C192.231 379.117 204.663 380.025 217.625 380.025C230.587 380.025 243.019 379.117 252.185 377.499C261.351 375.882 266.5 373.688 266.5 371.4C266.5 369.113 261.351 366.919 252.185 365.302C243.019 363.684 230.587 362.775 217.625 362.775C204.663 362.775 192.231 363.684 183.065 365.302C173.899 366.919 168.75 369.113 168.75 371.4Z" fill="#45413C"/>
<path d="M191.895 365.65C190.909 365.66 189.938 365.414 189.074 364.939C188.211 364.463 187.485 363.772 186.967 362.933C186.448 362.095 186.155 361.137 186.115 360.152C186.076 359.167 186.291 358.188 186.74 357.31C188.23 354.61 190.417 352.36 193.073 350.793C195.729 349.225 198.756 348.399 201.84 348.4H204.715C207.8 348.398 210.828 349.224 213.485 350.791C216.142 352.358 218.329 354.61 219.82 357.31C220.269 358.188 220.484 359.167 220.444 360.152C220.405 361.137 220.111 362.095 219.593 362.933C219.075 363.772 218.349 364.463 217.486 364.939C216.622 365.414 215.651 365.66 214.665 365.65H191.895Z" fill="#FF6196" stroke="#45413C" stroke-width="5" stroke-linecap="round" stroke-linejoin="round"/>
<path d="M188.875 221.9H252.125V259.275H188.875V221.9Z" fill="#FFDA8F" stroke="#45413C" stroke-width="5" stroke-linecap="round" stroke-linejoin="round"/>
<path d="M200.375 152.9V158.65C200.375 163.988 202.495 169.107 206.269 172.881C210.044 176.655 215.163 178.775 220.5 178.775C225.837 178.775 230.956 176.655 234.731 172.881C238.505 169.107 240.625 163.988 240.625 158.65V152.9H200.375Z" stroke="#45413C" stroke-width="5" stroke-linecap="round" stroke-linejoin="round"/>
<path d="M188.875 247.775H252.125V259.275H188.875V247.775Z" fill="#656769" stroke="#45413C" stroke-width="5" stroke-linecap="round" stroke-linejoin="round"/>
<path d="M220.5 282.275V308.15V282.275Z" fill="#FFDA8F"/>
<path d="M220.5 282.275V308.15" stroke="#45413C" stroke-width="5" stroke-linecap="round" stroke-linejoin="round"/>
<path d="M438 193.6C416.665 192.985 393.835 203.245 370 213.96C350.095 222.905 329.5 232.155 309.435 235.025C280.585 239.14 258.19 231.245 236.515 223.605C220.25 217.865 204.885 212.45 188.015 212.45C168.515 212.45 154.84 217.995 140.35 223.87C122.957 231.81 104.231 236.42 85.14 237.46C84.345 237.5 83.555 237.52 82.755 237.52C51.5 237.525 19.5 207.425 3 189.155V210.885C22.595 230.025 52.115 252.525 82.785 252.525C83.815 252.525 84.845 252.499 85.875 252.445C106.641 251.321 127.017 246.347 145.965 237.775C159.635 232.235 171.465 227.45 188 227.45C202.325 227.45 216.5 232.45 231.535 237.75C253.83 245.605 279.125 254.5 311.56 249.875C333.745 246.71 355.3 237.015 376.155 227.64C398.465 217.61 419.79 208.075 438 208.72V193.6Z" fill="#FF6242"/>
<path d="M438 193.6C416.665 192.985 393.835 203.245 370 213.96C350.095 222.905 329.5 232.155 309.435 235.025C280.585 239.14 258.19 231.245 236.515 223.605C220.25 217.865 204.885 212.45 188.015 212.45C168.515 212.45 154.84 217.995 140.35 223.87C122.957 231.81 104.231 236.42 85.14 237.46C84.345 237.5 83.555 237.52 82.755 237.52C51.5 237.525 19.5 207.425 3 189.155" stroke="#45413C" stroke-width="5" stroke-linecap="round" stroke-linejoin="round"/>
<path d="M3 210.885C22.595 230.025 52.115 252.525 82.785 252.525C83.815 252.525 84.845 252.499 85.875 252.445C106.641 251.321 127.017 246.347 145.965 237.775C159.635 232.235 171.465 227.45 188 227.45C202.325 227.45 216.5 232.45 231.535 237.75C253.83 245.605 279.125 254.5 311.56 249.875C333.745 246.71 355.3 237.015 376.155 227.64C398.465 217.61 419.79 208.075 438 208.72" stroke="#45413C" stroke-width="5" stroke-linecap="round" stroke-linejoin="round"/>
<path d="M236.16 152.9C234.834 152.9 233.562 152.374 232.624 151.436C231.687 150.498 231.16 149.226 231.16 147.9V120.155H209.905V147.905C209.905 149.231 209.378 150.503 208.44 151.441C207.503 152.379 206.231 152.905 204.905 152.905H200.405V158.655C200.405 163.993 202.525 169.112 206.299 172.886C210.073 176.66 215.192 178.78 220.53 178.78C225.867 178.78 230.986 176.66 234.76 172.886C238.534 169.112 240.655 163.993 240.655 158.655V152.905L236.16 152.9Z" fill="#FFDA8F" stroke="#45413C" stroke-width="5.045" stroke-linecap="round" stroke-linejoin="round"/>
<path d="M260.75 113.375C260.735 111.739 260.155 110.158 259.106 108.901C258.058 107.644 256.607 106.789 255 106.48V101.875C255 92.7255 251.365 83.9503 244.895 77.4803C238.425 71.0103 229.65 67.3755 220.5 67.3755C211.35 67.3755 202.575 71.0103 196.105 77.4803C189.635 83.9503 186 92.7255 186 101.875V106.48C184.321 106.792 182.812 107.702 181.755 109.043C180.698 110.384 180.163 112.063 180.252 113.768C180.341 115.473 181.046 117.088 182.237 118.312C183.428 119.536 185.023 120.285 186.725 120.42C188.342 128.182 192.582 135.15 198.734 140.152C204.885 145.154 212.572 147.885 220.5 147.885C228.428 147.885 236.115 145.154 242.266 140.152C248.417 135.15 252.658 128.182 254.275 120.42C256.037 120.261 257.676 119.452 258.873 118.149C260.071 116.846 260.74 115.145 260.75 113.375Z" fill="#FFDA8F" stroke="#45413C" stroke-width="5" stroke-linecap="round" stroke-linejoin="round"/>
<path d="M197.495 117.691C197.495 118.835 197.95 119.932 198.759 120.742C199.568 121.551 200.666 122.005 201.81 122.005C202.955 122.005 204.052 121.551 204.861 120.742C205.671 119.932 206.125 118.835 206.125 117.691C206.125 116.546 205.671 115.449 204.861 114.639C204.052 113.83 202.955 113.375 201.81 113.375C200.666 113.375 199.568 113.83 198.759 114.639C197.95 115.449 197.495 116.546 197.495 117.691Z" fill="#FFBE3D"/>
<path d="M234.87 117.691C234.87 118.835 235.325 119.932 236.134 120.742C236.943 121.551 238.041 122.005 239.185 122.005C240.33 122.005 241.427 121.551 242.236 120.742C243.045 119.932 243.5 118.835 243.5 117.691C243.5 116.546 243.045 115.449 242.236 114.639C241.427 113.83 240.33 113.375 239.185 113.375C238.041 113.375 236.943 113.83 236.134 114.639C235.325 115.449 234.87 116.546 234.87 117.691Z" fill="#FFBE3D"/>
<path d="M211.875 128.025C214.429 129.727 217.43 130.636 220.5 130.636C223.57 130.636 226.571 129.727 229.125 128.025" stroke="#45413C" stroke-width="5" stroke-linecap="round" stroke-linejoin="round"/>
<path d="M239.185 122.025C240.039 122.026 240.874 121.774 241.584 121.3C242.295 120.827 242.848 120.153 243.176 119.364C243.503 118.575 243.589 117.707 243.422 116.87C243.256 116.032 242.845 115.263 242.241 114.659C241.637 114.055 240.868 113.644 240.031 113.478C239.193 113.312 238.325 113.398 237.536 113.725C236.748 114.052 236.074 114.606 235.6 115.316C235.126 116.027 234.874 116.862 234.875 117.715" fill="#FFBE3D"/>
<path d="M234.875 107.145C233.957 106.228 232.713 105.713 231.415 105.713C230.117 105.713 228.873 106.228 227.955 107.145" stroke="#45413C" stroke-width="5" stroke-linecap="round" stroke-linejoin="round"/>
<path d="M213.045 107.145C212.127 106.228 210.883 105.713 209.585 105.713C208.287 105.713 207.043 106.228 206.125 107.145" stroke="#45413C" stroke-width="5" stroke-linecap="round" stroke-linejoin="round"/>
<path d="M220.5 55.8755C209.825 55.8755 199.587 60.1161 192.039 67.6644C184.491 75.2128 180.25 85.4505 180.25 96.1255V136.375C180.25 142.475 182.673 148.326 186.987 152.639C191.3 156.952 197.15 159.375 203.25 159.375L199.355 154.505C194.431 148.355 191.748 140.71 191.75 132.83V111.83C191.751 106.119 193.161 100.495 195.856 95.4588C198.551 90.4227 202.448 86.1296 207.2 82.9605L209 81.7605C209 90.3855 231.215 100.6 249.25 101.885V132.84C249.254 140.723 246.571 148.372 241.645 154.525L237.75 159.395C243.85 159.395 249.7 156.972 254.013 152.659C258.327 148.346 260.75 142.495 260.75 136.395V96.1255C260.75 85.4505 256.509 75.2128 248.961 67.6644C241.413 60.1161 231.175 55.8755 220.5 55.8755Z" fill="#FFDF3D"/>
<path d="M220.5 55.8755C209.825 55.8755 199.587 60.1161 192.039 67.6644C184.491 75.2128 180.25 85.4505 180.25 96.1255V107.625C180.25 96.9505 184.491 86.7128 192.039 79.1644C199.587 71.6161 209.825 67.3755 220.5 67.3755C231.175 67.3755 241.413 71.6161 248.961 79.1644C256.509 86.7128 260.75 96.9505 260.75 107.625V96.1255C260.75 85.4505 256.509 75.2128 248.961 67.6644C241.413 60.1161 231.175 55.8755 220.5 55.8755Z" fill="#FFEF9E"/>
<path d="M220.5 55.8755C209.825 55.8755 199.587 60.1161 192.039 67.6644C184.491 75.2128 180.25 85.4505 180.25 96.1255V136.375C180.25 142.475 182.673 148.326 186.987 152.639C191.3 156.952 197.15 159.375 203.25 159.375L199.355 154.505C194.431 148.355 191.748 140.71 191.75 132.83V111.83C191.751 106.119 193.161 100.495 195.856 95.4588C198.551 90.4227 202.448 86.1296 207.2 82.9605L209 81.7605C209 90.3855 231.215 100.6 249.25 101.885V132.84C249.254 140.723 246.571 148.372 241.645 154.525L237.75 159.395C243.85 159.395 249.7 156.972 254.013 152.659C258.327 148.346 260.75 142.495 260.75 136.395V96.1255C260.75 85.4505 256.509 75.2128 248.961 67.6644C241.413 60.1161 231.175 55.8755 220.5 55.8755V55.8755Z" stroke="#45413C" stroke-width="5" stroke-linecap="round" stroke-linejoin="round"/>
<path d="M209 57.5454V81.7504" stroke="#45413C" stroke-width="5" stroke-linecap="round" stroke-linejoin="round"/>
<path d="M300.735 58.7854C297.944 63.1884 294.112 66.837 289.578 69.4093C285.044 71.9816 279.946 73.3987 274.735 73.5354L265.5 57.2754C270.711 57.1395 275.809 55.7229 280.344 53.1505C284.878 50.5781 288.71 46.929 291.5 42.5254L300.735 58.7854Z" fill="#00F5BC" stroke="#45413C" stroke-width="5" stroke-linecap="round" stroke-linejoin="round"/>
<path d="M210.895 4.81539C212.767 9.68333 213.412 14.9373 212.773 20.1136C212.134 25.2898 210.23 30.2291 207.23 34.4954L188.68 32.2104C191.68 27.9427 193.582 23.0024 194.221 17.8254C194.859 12.6483 194.213 7.39377 192.34 2.52539L210.895 4.81539Z" fill="#FF6242" stroke="#45413C" stroke-width="5" stroke-linecap="round" stroke-linejoin="round"/>
<path d="M127.225 75.6954C123.858 71.711 121.523 66.9589 120.427 61.8586C119.331 56.7582 119.507 51.4665 120.94 46.4504L139.215 42.5254C137.782 47.5407 137.606 52.8317 138.702 57.9312C139.798 63.0308 142.133 67.782 145.5 71.7654L127.225 75.6954Z" fill="#FF6196" stroke="#45413C" stroke-width="5" stroke-linecap="round" stroke-linejoin="round"/>
<path d="M379.725 338.195C376.358 334.211 374.023 329.459 372.927 324.359C371.831 319.258 372.007 313.966 373.44 308.95L391.715 305.025C390.282 310.041 390.106 315.332 391.202 320.431C392.298 325.531 394.633 330.282 398 334.265L379.725 338.195Z" fill="#FF6196" stroke="#45413C" stroke-width="5" stroke-linecap="round" stroke-linejoin="round"/>
<path d="M115.05 307.525C119.776 309.734 123.885 313.072 127.015 317.245C130.146 321.417 132.201 326.296 133 331.45L118.045 342.67C117.247 337.516 115.193 332.637 112.063 328.465C108.934 324.292 104.825 320.954 100.1 318.745L115.05 307.525Z" fill="#BF8DF2" stroke="#45413C" stroke-width="5" stroke-linecap="round" stroke-linejoin="round"/>
<path d="M312 305.025C316.776 307.123 320.961 310.364 324.188 314.463C327.414 318.561 329.582 323.391 330.5 328.525L315.815 340.09C314.896 334.956 312.728 330.127 309.502 326.029C306.275 321.93 302.09 318.689 297.315 316.59L312 305.025Z" fill="#4AEFF7" stroke="#45413C" stroke-width="5" stroke-linecap="round" stroke-linejoin="round"/>
<path d="M35.1099 300.945C35.7294 306.124 37.6144 311.071 40.5984 315.349C43.5824 319.627 47.5736 323.105 52.2199 325.475L67.5499 314.78C62.9042 312.409 58.9134 308.932 55.9295 304.654C52.9456 300.376 51.0603 295.429 50.4399 290.25L35.1099 300.945Z" fill="#4AEFF7" stroke="#45413C" stroke-width="5" stroke-linecap="round" stroke-linejoin="round"/>
<path d="M92 156.135C87.6467 159.01 82.6527 160.768 77.4589 161.254C72.2651 161.741 67.0314 160.941 62.22 158.925L60.5 140.315C65.3108 142.33 70.5435 143.129 75.7362 142.642C80.929 142.156 85.9221 140.398 90.275 137.525L92 156.135Z" fill="#FF8A14" stroke="#45413C" stroke-width="5" stroke-linecap="round" stroke-linejoin="round"/>
<path d="M383 197.28C378.646 200.153 373.652 201.909 368.458 202.395C363.265 202.88 358.031 202.08 353.22 200.065L351.5 181.455C356.311 183.471 361.543 184.271 366.736 183.784C371.929 183.298 376.923 181.54 381.275 178.665L383 197.28Z" fill="#FF8A14" stroke="#45413C" stroke-width="5" stroke-linecap="round" stroke-linejoin="round"/>
<path d="M357 122.16C351.85 123.005 346.571 122.568 341.63 120.887C336.688 119.207 332.237 116.335 328.67 112.525L334.67 94.8254C338.237 98.6349 342.688 101.507 347.63 103.187C352.571 104.868 357.85 105.305 363 104.46L357 122.16Z" fill="#FFF48C" stroke="#45413C" stroke-width="5" stroke-linecap="round" stroke-linejoin="round"/>
<path d="M103 265.405C104.117 260.31 106.47 255.568 109.852 251.597C113.235 247.626 117.542 244.548 122.395 242.635L136.62 254.76C131.768 256.672 127.461 259.749 124.08 263.719C120.698 267.69 118.346 272.431 117.23 277.525L103 265.405Z" fill="#FFF48C" stroke="#45413C" stroke-width="5" stroke-linecap="round" stroke-linejoin="round"/>
</svg>
