<svg width="562" height="582" viewBox="0 0 562 582" fill="none" xmlns="http://www.w3.org/2000/svg">
<path d="M343.195 114.328C280.688 127.729 230.88 29.8078 201.605 108.625C184.195 155.499 92.7215 150.999 92.7215 218.52C92.7216 356.586 132.459 295.549 84.6839 381.345C59.9676 425.731 142.966 450.403 171.992 479.873C201.019 509.342 321.467 525.403 377.468 450.403C408.127 416.403 489.335 411.278 469.086 370.344C387.454 258.408 528.977 296.373 460.822 208.371C428.472 166.601 422.37 97.3526 343.195 114.328Z" fill="#FFECAD" stroke="#FFF1C2" stroke-width="3" stroke-miterlimit="10"/>
<path d="M162.395 444.63L366.573 442.693C376.535 437.139 386.038 430.798 394.992 423.733L329.765 244.797C328.883 242.214 327.357 239.898 325.331 238.069C323.306 236.24 320.847 234.957 318.187 234.343L272.969 223.91C270.914 223.435 268.786 223.369 266.706 223.716C264.626 224.063 262.634 224.817 260.846 225.935C259.057 227.052 257.506 228.511 256.281 230.228C255.057 231.946 254.183 233.887 253.709 235.943L228.104 346.96C227.288 350.498 225.297 353.655 222.456 355.915C219.615 358.175 216.091 359.405 212.461 359.404H190.873C188.27 359.404 185.706 360.037 183.402 361.249C181.098 362.461 179.123 364.215 177.648 366.359L135.496 427.67C144.029 433.983 153.021 439.652 162.395 444.63Z" fill="#DEA47A"/>
<path d="M257.866 380.864C257.712 381.637 257.331 382.348 256.773 382.906C256.216 383.464 255.505 383.844 254.731 383.999C253.803 384.187 252.973 384.699 252.387 385.443C251.801 386.187 251.499 387.115 251.533 388.062C251.568 389.008 251.938 389.911 252.576 390.61C253.215 391.309 254.081 391.759 255.02 391.879L268.395 393.554C269.745 393.723 271.109 393.372 272.209 392.572C273.309 391.772 274.063 390.583 274.318 389.247L294.514 283.199C294.792 281.744 294.118 275.709 289.025 275.474C287.944 275.426 286.874 275.708 285.956 276.281C285.038 276.854 284.315 277.692 283.883 278.684L273.595 302.689C273.448 303.033 273.339 303.392 273.269 303.759L257.866 380.864Z" fill="#F0C2A1"/>
<path d="M378.242 292.075C378.231 289.987 378.731 287.928 379.701 286.078C380.67 284.228 382.078 282.645 383.801 281.466C385.525 280.286 387.511 279.548 389.586 279.315C391.662 279.082 393.762 279.361 395.704 280.128C396.491 275.108 399.045 270.534 402.906 267.231C406.767 263.928 411.681 262.113 416.762 262.113C421.843 262.113 426.757 263.928 430.618 267.231C434.479 270.534 437.033 275.108 437.819 280.128C439.58 279.435 441.473 279.139 443.361 279.262C445.25 279.386 447.088 279.925 448.744 280.842C450.4 281.758 451.832 283.03 452.939 284.565C454.046 286.1 454.8 287.861 455.147 289.721C455.494 291.582 455.425 293.496 454.946 295.327C454.467 297.158 453.589 298.86 452.375 300.312C451.161 301.764 449.641 302.929 447.923 303.725C446.206 304.521 444.334 304.927 442.442 304.915H391.082C387.677 304.915 384.411 303.562 382.003 301.154C379.595 298.746 378.242 295.48 378.242 292.075Z" fill="white" stroke="#45413C" stroke-width="5" stroke-linecap="round" stroke-linejoin="round"/>
<path d="M378.242 292.075C378.231 289.987 378.731 287.928 379.701 286.078C380.67 284.228 382.078 282.645 383.801 281.466C385.525 280.286 387.511 279.548 389.586 279.315C391.662 279.082 393.762 279.361 395.704 280.128C396.491 275.108 399.045 270.534 402.906 267.231C406.767 263.928 411.681 262.113 416.762 262.113C421.843 262.113 426.757 263.928 430.618 267.231C434.479 270.534 437.033 275.108 437.819 280.128C439.58 279.435 441.473 279.139 443.361 279.262C445.25 279.386 447.088 279.925 448.744 280.842C450.4 281.758 451.832 283.03 452.939 284.565C454.046 286.1 454.8 287.861 455.147 289.721C455.494 291.582 455.425 293.496 454.946 295.327C454.467 297.158 453.589 298.86 452.375 300.312C451.161 301.764 449.641 302.929 447.923 303.725C446.206 304.521 444.334 304.927 442.442 304.915H391.082C387.677 304.915 384.411 303.562 382.003 301.154C379.595 298.746 378.242 295.48 378.242 292.075Z" fill="white" stroke="#45413C" stroke-width="5" stroke-linecap="round" stroke-linejoin="round"/>
<path d="M111.1 229.303C113.115 229.317 115.111 229.703 116.985 230.443C117.988 224.027 121.25 218.181 126.183 213.958C131.117 209.735 137.397 207.415 143.89 207.415C150.384 207.415 156.664 209.735 161.598 213.958C166.531 218.181 169.793 224.027 170.796 230.443C173.043 229.57 175.455 229.203 177.86 229.369C180.265 229.535 182.603 230.229 184.709 231.402C186.815 232.576 188.637 234.199 190.044 236.156C191.45 238.114 192.408 240.358 192.849 242.728C193.289 245.098 193.201 247.536 192.591 249.869C191.982 252.201 190.865 254.37 189.321 256.222C187.777 258.073 185.844 259.561 183.659 260.58C181.474 261.598 179.091 262.123 176.681 262.115H111.1C108.921 262.154 106.755 261.759 104.731 260.952C102.706 260.146 100.862 258.943 99.3067 257.416C97.7515 255.889 96.5163 254.067 95.673 252.057C94.8298 250.047 94.3955 247.889 94.3955 245.709C94.3955 243.53 94.8298 241.372 95.673 239.362C96.5163 237.352 97.7515 235.53 99.3067 234.002C100.862 232.475 102.706 231.273 104.731 230.466C106.755 229.659 108.921 229.264 111.1 229.303Z" fill="white" stroke="#45413C" stroke-width="5" stroke-linecap="round" stroke-linejoin="round"/>
<path d="M111.1 229.303C113.115 229.317 115.111 229.703 116.985 230.443C117.988 224.027 121.25 218.181 126.183 213.958C131.117 209.735 137.397 207.415 143.89 207.415C150.384 207.415 156.664 209.735 161.598 213.958C166.531 218.181 169.793 224.027 170.796 230.443C173.043 229.57 175.455 229.203 177.86 229.369C180.265 229.535 182.603 230.229 184.709 231.402C186.815 232.576 188.637 234.199 190.044 236.156C191.45 238.114 192.408 240.358 192.849 242.728C193.289 245.098 193.201 247.536 192.591 249.869C191.982 252.201 190.865 254.37 189.321 256.222C187.777 258.073 185.844 259.561 183.659 260.58C181.474 261.598 179.091 262.123 176.681 262.115H111.1C108.921 262.154 106.755 261.759 104.731 260.952C102.706 260.146 100.862 258.943 99.3067 257.416C97.7515 255.889 96.5163 254.067 95.673 252.057C94.8298 250.047 94.3955 247.889 94.3955 245.709C94.3955 243.53 94.8298 241.372 95.673 239.362C96.5163 237.352 97.7515 235.53 99.3067 234.002C100.862 232.475 102.706 231.273 104.731 230.466C106.755 229.659 108.921 229.264 111.1 229.303Z" fill="white" stroke="#45413C" stroke-width="5" stroke-linecap="round" stroke-linejoin="round"/>
<path d="M340.631 274.607L332.943 339.973C332.855 340.729 332.607 341.457 332.215 342.109C331.823 342.761 331.296 343.322 330.671 343.754C330.045 344.186 329.334 344.48 328.586 344.616C327.837 344.752 327.068 344.727 326.331 344.542L316.353 342.044C315.644 341.867 314.907 341.836 314.186 341.955C313.465 342.073 312.776 342.338 312.162 342.733C311.547 343.128 311.02 343.645 310.613 344.252C310.205 344.858 309.927 345.541 309.794 346.26L291.786 443.4L366.563 442.693C376.528 437.138 386.035 430.796 394.993 423.728L340.631 274.607Z" fill="#BF8256"/>
<path d="M292.781 70.6007L305.038 95.4248C305.522 96.4099 306.24 97.262 307.129 97.9071C308.017 98.5522 309.049 98.9709 310.136 99.1269L337.539 103.113C338.788 103.295 339.962 103.823 340.927 104.638C341.892 105.452 342.61 106.52 343 107.721C343.389 108.923 343.435 110.209 343.132 111.435C342.829 112.66 342.188 113.777 341.284 114.658L321.457 133.998C320.671 134.764 320.084 135.71 319.745 136.754C319.407 137.798 319.328 138.909 319.515 139.99L324.196 167.275C324.41 168.521 324.271 169.802 323.795 170.973C323.319 172.144 322.525 173.159 321.503 173.902C320.48 174.645 319.27 175.087 318.009 175.178C316.748 175.27 315.487 175.006 314.368 174.418L289.86 161.529C288.888 161.018 287.806 160.751 286.709 160.751C285.611 160.751 284.529 161.018 283.557 161.529L259.049 174.412C257.93 174.999 256.67 175.262 255.41 175.17C254.15 175.078 252.941 174.635 251.919 173.893C250.897 173.15 250.103 172.136 249.628 170.965C249.152 169.795 249.013 168.515 249.226 167.27L253.902 139.985C254.092 138.906 254.016 137.797 253.681 136.754C253.347 135.711 252.763 134.765 251.982 133.998L232.149 114.669C231.247 113.787 230.608 112.67 230.306 111.445C230.004 110.22 230.05 108.935 230.44 107.734C230.829 106.534 231.546 105.466 232.51 104.651C233.474 103.837 234.646 103.308 235.894 103.123L263.297 99.1377C264.383 98.9807 265.415 98.5617 266.304 97.9167C267.192 97.2716 267.91 96.42 268.395 95.4354L280.647 70.6114C281.207 69.4812 282.071 68.5298 283.142 67.8642C284.213 67.1986 285.449 66.8454 286.711 66.8442C287.972 66.8431 289.208 67.1942 290.281 67.8579C291.353 68.5216 292.219 69.4715 292.781 70.6007Z" fill="#FFE500"/>
<path d="M250.061 162.396L253.902 139.98C254.091 138.902 254.015 137.794 253.68 136.752C253.345 135.71 252.763 134.765 251.982 133.998L232.149 114.669C231.247 113.787 230.608 112.67 230.306 111.445C230.004 110.22 230.05 108.935 230.44 107.734C230.829 106.534 231.546 105.466 232.51 104.652C233.474 103.837 234.646 103.308 235.894 103.123L263.297 99.1377C264.383 98.9808 265.415 98.5618 266.304 97.9167C267.192 97.2717 267.91 96.4201 268.395 95.4355L280.647 70.6115C281.207 69.479 282.072 68.5255 283.145 67.8588C284.218 67.1922 285.456 66.8389 286.719 66.8389C287.982 66.8389 289.221 67.1922 290.294 67.8588C291.367 68.5255 292.232 69.479 292.791 70.6115L305.048 95.4355C305.533 96.4207 306.251 97.2727 307.139 97.9179C308.028 98.563 309.06 98.9817 310.147 99.1377L311.918 99.3945L250.061 162.396Z" fill="#FFF48C"/>
<path d="M292.781 70.6007L305.038 95.4248C305.522 96.4099 306.24 97.262 307.129 97.9071C308.017 98.5522 309.049 98.9709 310.136 99.1269L337.539 103.113C338.788 103.295 339.962 103.823 340.927 104.638C341.892 105.452 342.61 106.52 343 107.721C343.389 108.923 343.435 110.209 343.132 111.435C342.829 112.66 342.189 113.777 341.284 114.658L321.457 133.998C320.671 134.764 320.084 135.71 319.745 136.754C319.407 137.798 319.328 138.909 319.515 139.99L324.196 167.275C324.41 168.521 324.271 169.802 323.795 170.973C323.319 172.144 322.525 173.159 321.503 173.902C320.48 174.645 319.27 175.087 318.009 175.178C316.748 175.27 315.487 175.006 314.368 174.418L289.86 161.529C288.888 161.018 287.806 160.751 286.709 160.751C285.611 160.751 284.529 161.018 283.557 161.529L259.049 174.412C257.93 174.999 256.67 175.262 255.41 175.17C254.15 175.078 252.941 174.635 251.919 173.893C250.897 173.15 250.103 172.136 249.628 170.965C249.152 169.795 249.013 168.515 249.226 167.27L253.902 139.985C254.092 138.906 254.016 137.797 253.681 136.754C253.347 135.711 252.763 134.765 251.982 133.998L232.149 114.669C231.247 113.787 230.608 112.67 230.306 111.445C230.004 110.22 230.05 108.935 230.44 107.734C230.829 106.534 231.546 105.466 232.51 104.651C233.474 103.837 234.646 103.308 235.894 103.123L263.297 99.1377C264.383 98.9807 265.415 98.5617 266.304 97.9167C267.192 97.2716 267.91 96.42 268.395 95.4354L280.647 70.6114C281.207 69.4812 282.071 68.5298 283.142 67.8642C284.213 67.1986 285.449 66.8454 286.711 66.8442C287.972 66.8431 289.208 67.1942 290.281 67.8579C291.353 68.5216 292.219 69.4715 292.781 70.6007V70.6007Z" stroke="#45413C" stroke-width="5" stroke-linecap="round" stroke-linejoin="round"/>
<path d="M286.783 31.4496C283.857 30.9948 278.089 18.8289 278.089 11.4834C278.146 9.21429 279.087 7.05707 280.711 5.47211C282.336 3.88715 284.516 3 286.786 3C289.056 3 291.235 3.88715 292.86 5.47211C294.485 7.05707 295.426 9.21429 295.482 11.4834C295.482 18.8236 289.715 30.9948 286.783 31.4496Z" fill="#FFF48C" stroke="#B58B00" stroke-width="5" stroke-linecap="round" stroke-linejoin="round"/>
<path d="M197.235 82.0284C191.767 81.9869 186.374 80.7469 181.437 78.3957C180.448 77.8249 179.581 77.0649 178.886 76.1591C178.191 75.2533 177.681 74.2194 177.385 73.1165C177.09 72.0136 177.014 70.8633 177.163 69.7313C177.312 68.5992 177.683 67.5076 178.253 66.5187C178.824 65.5299 179.584 64.6631 180.49 63.968C181.396 63.2728 182.43 62.7629 183.533 62.4673C184.636 62.1717 185.786 62.0962 186.918 62.2452C188.05 62.3942 189.142 62.7647 190.13 63.3355C196.508 67.0163 204.18 78.1282 203.067 80.8674C201.295 81.8634 199.253 82.27 197.235 82.0284Z" fill="#FFF48C" stroke="#B58B00" stroke-width="5" stroke-linecap="round" stroke-linejoin="round"/>
<path d="M186.711 196.727C185.183 196.725 183.683 196.323 182.359 195.559C181.035 194.796 179.935 193.699 179.168 192.378C178.596 191.389 178.224 190.298 178.074 189.165C177.924 188.033 177.999 186.882 178.295 185.779C178.591 184.676 179.101 183.641 179.797 182.736C180.493 181.83 181.361 181.071 182.351 180.501C187.289 178.153 192.682 176.915 198.15 176.874C202.237 176.874 203.805 177.81 204.003 178.061C205.073 180.768 197.422 191.88 191.045 195.556C189.729 196.321 188.234 196.725 186.711 196.727Z" fill="#FFF48C" stroke="#B58B00" stroke-width="5" stroke-linecap="round" stroke-linejoin="round"/>
<path d="M389.627 195.122C388.103 195.121 386.607 194.718 385.288 193.956C378.921 190.275 371.244 179.163 372.357 176.43C374.128 175.434 376.171 175.027 378.188 175.269C383.656 175.31 389.049 176.548 393.987 178.896C395.647 179.853 396.945 181.331 397.678 183.101C398.412 184.871 398.54 186.834 398.043 188.685C397.545 190.535 396.451 192.17 394.929 193.334C393.407 194.498 391.543 195.127 389.627 195.122Z" fill="#FFF48C" stroke="#B58B00" stroke-width="5" stroke-linecap="round" stroke-linejoin="round"/>
<path d="M377.262 80.4235C373.17 80.4235 371.607 79.4819 371.409 79.2304C370.339 76.5554 377.99 65.4167 384.367 61.7359C385.357 61.1529 386.452 60.7717 387.589 60.6143C388.727 60.4569 389.884 60.5264 390.995 60.8189C392.106 61.1114 393.147 61.621 394.06 62.3183C394.972 63.0156 395.737 63.8868 396.311 64.8816C396.885 65.8763 397.256 66.975 397.403 68.114C397.55 69.2529 397.47 70.4098 397.167 71.5176C396.864 72.6254 396.345 73.6622 395.64 74.5683C394.934 75.4743 394.056 76.2315 393.056 76.7962C388.12 79.1454 382.729 80.3835 377.262 80.4235Z" fill="#FFF48C" stroke="#B58B00" stroke-width="5" stroke-linecap="round" stroke-linejoin="round"/>
<path d="M318.187 234.343L272.969 223.91C270.914 223.435 268.786 223.369 266.706 223.716C264.626 224.063 262.634 224.817 260.846 225.935C259.057 227.052 257.506 228.511 256.281 230.228C255.057 231.946 254.183 233.887 253.709 235.943L228.104 346.96C227.288 350.498 225.297 353.655 222.456 355.915C219.615 358.175 216.091 359.405 212.461 359.404H190.873C188.27 359.404 185.706 360.037 183.402 361.249C181.098 362.461 179.123 364.215 177.648 366.359L135.496 427.67C141.397 432.032 147.521 436.086 153.841 439.815L192.008 384.228C193.487 382.078 195.468 380.32 197.78 379.108C200.092 377.896 202.665 377.266 205.276 377.273H226.836C230.466 377.268 233.987 376.033 236.824 373.769C239.661 371.505 241.648 368.346 242.458 364.808L268.085 253.795C269.05 249.65 271.619 246.055 275.229 243.799C278.838 241.543 283.195 240.809 287.345 241.758L332.285 252.142L332.424 252.089L329.749 244.802C328.869 242.22 327.346 239.904 325.323 238.074C323.3 236.244 320.845 234.96 318.187 234.343Z" fill="#F0C2A1"/>
<path d="M139.963 421.176L177.649 366.359C179.124 364.215 181.099 362.461 183.403 361.249C185.707 360.037 188.271 359.404 190.874 359.404H212.461C216.092 359.405 219.615 358.175 222.457 355.915C225.298 353.655 227.289 350.498 228.105 346.96L253.72 235.943C254.194 233.887 255.068 231.946 256.293 230.228C257.517 228.511 259.068 227.052 260.857 225.935C262.645 224.817 264.637 224.063 266.717 223.716C268.797 223.369 270.926 223.435 272.98 223.91L318.199 234.343C320.858 234.957 323.317 236.24 325.343 238.069C327.369 239.898 328.894 242.214 329.776 244.797L392.152 415.943" stroke="#45413C" stroke-width="5" stroke-linecap="round" stroke-linejoin="round"/>
<path d="M383.838 410.701C380.896 407.999 377.147 406.341 373.169 405.983C369.191 405.624 365.206 406.584 361.828 408.716C361.897 408.01 361.935 407.298 361.935 406.576C361.846 400.947 359.547 395.578 355.535 391.629C351.523 387.68 346.119 385.466 340.489 385.466C334.86 385.466 329.456 387.68 325.443 391.629C321.431 395.578 319.133 400.947 319.044 406.576C319.044 407.303 319.081 408.015 319.151 408.716C316.247 406.894 312.89 405.923 309.462 405.912C308.244 405.916 307.029 406.038 305.835 406.276C302.571 401.177 297.987 397.057 292.571 394.352C287.155 391.647 281.108 390.459 275.07 390.912C269.033 391.366 263.232 393.445 258.28 396.929C253.329 400.412 249.413 405.171 246.947 410.701C244.005 407.999 240.256 406.341 236.278 405.983C232.3 405.624 228.315 406.584 224.937 408.716C225.007 408.01 225.044 407.298 225.044 406.576C224.955 400.947 222.657 395.578 218.645 391.629C214.633 387.68 209.229 385.466 203.599 385.466C197.969 385.466 192.565 387.68 188.553 391.629C184.541 395.578 182.242 400.947 182.153 406.576C182.153 407.303 182.191 408.015 182.26 408.716C178.883 406.586 174.899 405.626 170.922 405.985C166.946 406.343 163.197 408.001 160.256 410.701C158.027 405.704 154.61 401.329 150.302 397.956C145.995 394.582 140.928 392.314 135.543 391.347C130.158 390.381 124.619 390.746 119.407 392.411C114.196 394.076 109.47 396.99 105.643 400.899C114.182 432 153.682 452.682 179.37 452.682C205.058 452.682 243.187 482.528 267.879 469.514C292.571 456.5 319.044 448.408 355.467 448.408C391.89 448.408 407.081 416.383 426.595 393.11C418.573 389.98 409.654 390.062 401.692 393.338C393.729 396.614 387.335 402.832 383.838 410.701Z" fill="#E8F4FA"/>
<path d="M414.477 390.798C407.995 390.801 401.653 392.68 396.215 396.208C390.778 399.735 386.477 404.761 383.832 410.679C380.89 407.978 377.141 406.32 373.163 405.961C369.186 405.602 365.2 406.563 361.822 408.694C361.898 407.983 361.935 407.269 361.935 406.554C361.846 400.925 359.547 395.557 355.535 391.608C351.523 387.658 346.119 385.445 340.489 385.445C334.86 385.445 329.456 387.658 325.443 391.608C321.431 395.557 319.133 400.925 319.044 406.554C319.044 407.282 319.081 407.993 319.151 408.694C316.247 406.872 312.89 405.901 309.462 405.891C308.244 405.894 307.029 406.016 305.835 406.255C302.571 401.156 297.987 397.036 292.571 394.331C287.155 391.626 281.108 390.437 275.07 390.891C269.033 391.344 263.232 393.423 258.28 396.907C253.329 400.391 249.413 405.15 246.947 410.679C244.005 407.978 240.256 406.32 236.278 405.961C232.3 405.602 228.315 406.563 224.937 408.694C225.007 407.988 225.044 407.276 225.044 406.554C224.955 400.925 222.657 395.557 218.645 391.608C214.633 387.658 209.229 385.445 203.599 385.445C197.969 385.445 192.565 387.658 188.553 391.608C184.541 395.557 182.242 400.925 182.153 406.554C182.153 407.282 182.191 407.993 182.26 408.694C178.883 406.563 174.897 405.602 170.92 405.961C166.942 406.32 163.192 407.978 160.251 410.679C158.022 405.683 154.606 401.307 150.299 397.934C145.992 394.561 140.925 392.292 135.541 391.326C130.156 390.359 124.617 390.724 119.406 392.389C114.195 394.054 109.47 396.968 105.643 400.878C109.854 405.431 114.241 409.823 118.831 413.996C126.746 411.293 135.386 411.65 143.051 414.996C150.717 418.343 156.852 424.437 160.251 432.079C163.192 429.378 166.942 427.72 170.92 427.361C174.897 427.002 178.883 427.963 182.26 430.094C182.191 429.388 182.153 428.676 182.153 427.954C182.242 422.325 184.541 416.957 188.553 413.008C192.565 409.058 197.969 406.845 203.599 406.845C209.229 406.845 214.633 409.058 218.645 413.008C222.657 416.957 224.955 422.325 225.044 427.954C225.044 428.682 225.007 429.393 224.937 430.094C228.315 427.963 232.3 427.002 236.278 427.361C240.256 427.72 244.005 429.378 246.947 432.079C249.413 426.55 253.329 421.791 258.28 418.307C263.232 414.823 269.033 412.744 275.07 412.291C281.108 411.837 287.155 413.026 292.571 415.731C297.987 418.436 302.571 422.556 305.835 427.655C307.029 427.416 308.244 427.294 309.462 427.291C312.89 427.301 316.247 428.272 319.151 430.094C319.081 429.388 319.044 428.676 319.044 427.954C319.133 422.325 321.431 416.957 325.443 413.008C329.456 409.058 334.86 406.845 340.489 406.845C346.119 406.845 351.523 409.058 355.535 413.008C359.547 416.957 361.846 422.325 361.935 427.954C361.935 428.669 361.898 429.383 361.822 430.094C365.185 427.972 369.151 427.01 373.113 427.356C377.074 427.702 380.813 429.336 383.757 432.01L383.982 431.849C386.171 427.077 389.449 422.886 393.552 419.612C397.655 416.337 402.469 414.071 407.608 412.996C414.363 406.773 420.712 400.124 426.616 393.088C422.748 391.576 418.631 390.8 414.477 390.798Z" fill="white"/>
<path d="M419.774 391.232C418.022 390.956 416.251 390.819 414.477 390.82C407.995 390.822 401.651 392.701 396.213 396.23C390.775 399.759 386.475 404.786 383.832 410.706C380.891 408.005 377.144 406.347 373.167 405.987C369.19 405.628 365.206 406.586 361.828 408.716C361.897 408.01 361.935 407.298 361.935 406.576C361.846 400.947 359.547 395.578 355.535 391.629C351.523 387.68 346.119 385.466 340.489 385.466C334.86 385.466 329.456 387.68 325.443 391.629C321.431 395.578 319.133 400.947 319.044 406.576C319.044 407.303 319.081 408.015 319.151 408.716C316.247 406.894 312.89 405.923 309.462 405.912C308.244 405.916 307.029 406.038 305.835 406.276C302.57 401.178 297.986 397.058 292.57 394.353C287.153 391.649 281.106 390.46 275.069 390.915C269.032 391.369 263.23 393.448 258.279 396.933C253.328 400.417 249.412 405.176 246.947 410.706C244.006 408.004 240.257 406.345 236.279 405.985C232.301 405.625 228.316 406.585 224.937 408.716C225.007 408.01 225.044 407.298 225.044 406.576C224.955 400.947 222.657 395.578 218.645 391.629C214.633 387.68 209.229 385.466 203.599 385.466C197.969 385.466 192.565 387.68 188.553 391.629C184.541 395.578 182.242 400.947 182.153 406.576C182.153 407.303 182.191 408.015 182.26 408.716C178.882 406.585 174.896 405.625 170.919 405.985C166.941 406.345 163.192 408.004 160.251 410.706C158.197 406.105 155.134 402.025 151.289 398.769C147.443 395.513 142.914 393.165 138.037 391.898C133.161 390.631 128.061 390.479 123.117 391.452C118.173 392.425 113.512 394.498 109.479 397.518" stroke="#45413C" stroke-width="5" stroke-linecap="round" stroke-linejoin="round"/>
</svg>